<svg width="76" height="14" viewBox="0 0 76 14" fill="none" xmlns="http://www.w3.org/2000/svg">
<path d="M9.02961 1C10.2589 1.00006 11.4501 1.4416 12.4002 2.24936C13.3503 3.05712 14.0004 4.18109 14.2399 5.4297C15.0411 5.54177 15.7712 5.965 16.2823 6.61367C16.7934 7.26234 17.0474 8.08794 16.9927 8.92325C16.938 9.75855 16.5788 10.5411 15.9877 11.1124C15.3967 11.6837 14.6181 12.001 13.8097 12H12.2163C12.3572 12 12.4923 11.9421 12.5919 11.8389C12.6915 11.7358 12.7474 11.5959 12.7474 11.45C12.7474 11.3041 12.6915 11.1642 12.5919 11.0611C12.4923 10.9579 12.3572 10.9 12.2163 10.9H1.11597C0.803048 10.5823 0.546667 10.2099 0.358599 9.8H10.0918C10.2327 9.8 10.3678 9.74205 10.4674 9.63891C10.567 9.53576 10.623 9.39587 10.623 9.25C10.623 9.10413 10.567 8.96423 10.4674 8.86109C10.3678 8.75794 10.2327 8.7 10.0918 8.7H0.0378051C-0.0126017 8.33519 -0.0126017 7.96481 0.0378051 7.6H7.96737C8.10823 7.6 8.24333 7.54205 8.34293 7.43891C8.44253 7.33576 8.49849 7.19587 8.49849 7.05C8.49849 6.90413 8.44253 6.76423 8.34293 6.66109C8.24333 6.55794 8.10823 6.5 7.96737 6.5H0.358599C0.691681 5.77237 1.2367 5.1712 1.91695 4.7811C2.59721 4.39099 3.37846 4.23158 4.15077 4.3253C4.56133 3.33803 5.2422 2.49695 6.10927 1.90598C6.97633 1.31501 7.99159 1.00004 9.02961 1V1Z" fill="#133D6A"/>
<path d="M26.9062 8.22266H28.3711C28.3242 8.78125 28.168 9.2793 27.9023 9.7168C27.6367 10.1504 27.2637 10.4922 26.7832 10.7422C26.3027 10.9922 25.7188 11.1172 25.0312 11.1172C24.5039 11.1172 24.0293 11.0234 23.6074 10.8359C23.1855 10.6445 22.8242 10.375 22.5234 10.0273C22.2227 9.67578 21.9922 9.25195 21.832 8.75586C21.6758 8.25977 21.5977 7.70508 21.5977 7.0918V6.38281C21.5977 5.76953 21.6777 5.21484 21.8379 4.71875C22.002 4.22266 22.2363 3.79883 22.541 3.44727C22.8457 3.0918 23.2109 2.82031 23.6367 2.63281C24.0664 2.44531 24.5488 2.35156 25.084 2.35156C25.7637 2.35156 26.3379 2.47656 26.8066 2.72656C27.2754 2.97656 27.6387 3.32227 27.8965 3.76367C28.1582 4.20508 28.3184 4.71094 28.377 5.28125H26.9121C26.873 4.91406 26.7871 4.59961 26.6543 4.33789C26.5254 4.07617 26.334 3.87695 26.0801 3.74023C25.8262 3.59961 25.4941 3.5293 25.084 3.5293C24.748 3.5293 24.4551 3.5918 24.2051 3.7168C23.9551 3.8418 23.7461 4.02539 23.5781 4.26758C23.4102 4.50977 23.2832 4.80859 23.1973 5.16406C23.1152 5.51562 23.0742 5.91797 23.0742 6.37109V7.0918C23.0742 7.52148 23.1113 7.91211 23.1855 8.26367C23.2637 8.61133 23.3809 8.91016 23.5371 9.16016C23.6973 9.41016 23.9004 9.60352 24.1465 9.74023C24.3926 9.87695 24.6875 9.94531 25.0312 9.94531C25.4492 9.94531 25.7871 9.87891 26.0449 9.74609C26.3066 9.61328 26.5039 9.41992 26.6367 9.16602C26.7734 8.9082 26.8633 8.59375 26.9062 8.22266ZM31.0781 2V11H29.6602V2H31.0781ZM32.3555 7.90039V7.76562C32.3555 7.30859 32.4219 6.88477 32.5547 6.49414C32.6875 6.09961 32.8789 5.75781 33.1289 5.46875C33.3828 5.17578 33.6914 4.94922 34.0547 4.78906C34.4219 4.625 34.8359 4.54297 35.2969 4.54297C35.7617 4.54297 36.1758 4.625 36.5391 4.78906C36.9062 4.94922 37.2168 5.17578 37.4707 5.46875C37.7246 5.75781 37.918 6.09961 38.0508 6.49414C38.1836 6.88477 38.25 7.30859 38.25 7.76562V7.90039C38.25 8.35742 38.1836 8.78125 38.0508 9.17188C37.918 9.5625 37.7246 9.9043 37.4707 10.1973C37.2168 10.4863 36.9082 10.7129 36.5449 10.877C36.1816 11.0371 35.7695 11.1172 35.3086 11.1172C34.8438 11.1172 34.4277 11.0371 34.0605 10.877C33.6973 10.7129 33.3887 10.4863 33.1348 10.1973C32.8809 9.9043 32.6875 9.5625 32.5547 9.17188C32.4219 8.78125 32.3555 8.35742 32.3555 7.90039ZM33.7676 7.76562V7.90039C33.7676 8.18555 33.7969 8.45508 33.8555 8.70898C33.9141 8.96289 34.0059 9.18555 34.1309 9.37695C34.2559 9.56836 34.416 9.71875 34.6113 9.82812C34.8066 9.9375 35.0391 9.99219 35.3086 9.99219C35.5703 9.99219 35.7969 9.9375 35.9883 9.82812C36.1836 9.71875 36.3438 9.56836 36.4688 9.37695C36.5938 9.18555 36.6855 8.96289 36.7441 8.70898C36.8066 8.45508 36.8379 8.18555 36.8379 7.90039V7.76562C36.8379 7.48438 36.8066 7.21875 36.7441 6.96875C36.6855 6.71484 36.5918 6.49023 36.4629 6.29492C36.3379 6.09961 36.1777 5.94727 35.9824 5.83789C35.791 5.72461 35.5625 5.66797 35.2969 5.66797C35.0312 5.66797 34.8008 5.72461 34.6055 5.83789C34.4141 5.94727 34.2559 6.09961 34.1309 6.29492C34.0059 6.49023 33.9141 6.71484 33.8555 6.96875C33.7969 7.21875 33.7676 7.48438 33.7676 7.76562ZM43.248 9.50586V4.66016H44.666V11H43.3301L43.248 9.50586ZM43.4473 8.1875L43.9219 8.17578C43.9219 8.60156 43.875 8.99414 43.7812 9.35352C43.6875 9.70898 43.543 10.0195 43.3477 10.2852C43.1523 10.5469 42.9023 10.752 42.5977 10.9004C42.293 11.0449 41.9277 11.1172 41.502 11.1172C41.1934 11.1172 40.9102 11.0723 40.6523 10.9824C40.3945 10.8926 40.1719 10.7539 39.9844 10.5664C39.8008 10.3789 39.6582 10.1348 39.5566 9.83398C39.4551 9.5332 39.4043 9.17383 39.4043 8.75586V4.66016H40.8164V8.76758C40.8164 8.99805 40.8438 9.19141 40.8984 9.34766C40.9531 9.5 41.0273 9.62305 41.1211 9.7168C41.2148 9.81055 41.3242 9.87695 41.4492 9.91602C41.5742 9.95508 41.707 9.97461 41.8477 9.97461C42.25 9.97461 42.5664 9.89648 42.7969 9.74023C43.0312 9.58008 43.1973 9.36523 43.2949 9.0957C43.3965 8.82617 43.4473 8.52344 43.4473 8.1875ZM49.9805 9.6875V2H51.3984V11H50.1152L49.9805 9.6875ZM45.8555 7.90039V7.77734C45.8555 7.29688 45.9121 6.85938 46.0254 6.46484C46.1387 6.06641 46.3027 5.72461 46.5176 5.43945C46.7324 5.15039 46.9941 4.92969 47.3027 4.77734C47.6113 4.62109 47.959 4.54297 48.3457 4.54297C48.7285 4.54297 49.0645 4.61719 49.3535 4.76562C49.6426 4.91406 49.8887 5.12695 50.0918 5.4043C50.2949 5.67773 50.457 6.00586 50.5781 6.38867C50.6992 6.76758 50.7852 7.18945 50.8359 7.6543V8.04688C50.7852 8.5 50.6992 8.91406 50.5781 9.28906C50.457 9.66406 50.2949 9.98828 50.0918 10.2617C49.8887 10.5352 49.6406 10.7461 49.3477 10.8945C49.0586 11.043 48.7207 11.1172 48.334 11.1172C47.9512 11.1172 47.6055 11.0371 47.2969 10.877C46.9922 10.7168 46.7324 10.4922 46.5176 10.2031C46.3027 9.91406 46.1387 9.57422 46.0254 9.18359C45.9121 8.78906 45.8555 8.36133 45.8555 7.90039ZM47.2676 7.77734V7.90039C47.2676 8.18945 47.293 8.45898 47.3438 8.70898C47.3984 8.95898 47.4824 9.17969 47.5957 9.37109C47.709 9.55859 47.8555 9.70703 48.0352 9.81641C48.2188 9.92188 48.4375 9.97461 48.6914 9.97461C49.0117 9.97461 49.2754 9.9043 49.4824 9.76367C49.6895 9.62305 49.8516 9.43359 49.9688 9.19531C50.0898 8.95312 50.1719 8.68359 50.2148 8.38672V7.32617C50.1914 7.0957 50.1426 6.88086 50.0684 6.68164C49.998 6.48242 49.9023 6.30859 49.7812 6.16016C49.6602 6.00781 49.5098 5.89062 49.3301 5.80859C49.1543 5.72266 48.9453 5.67969 48.7031 5.67969C48.4453 5.67969 48.2266 5.73438 48.0469 5.84375C47.8672 5.95312 47.7188 6.10352 47.6016 6.29492C47.4883 6.48633 47.4043 6.70898 47.3496 6.96289C47.2949 7.2168 47.2676 7.48828 47.2676 7.77734ZM54.1348 2.46875L55.9453 5.58008L57.7559 2.46875H59.4492L56.8711 6.69336L59.5137 11H57.8027L55.9453 7.83008L54.0879 11H52.3711L55.0195 6.69336L52.4355 2.46875H54.1348ZM62.8945 9.99219C63.125 9.99219 63.332 9.94727 63.5156 9.85742C63.7031 9.76367 63.8535 9.63477 63.9668 9.4707C64.084 9.30664 64.1484 9.11719 64.1602 8.90234H65.4902C65.4824 9.3125 65.3613 9.68555 65.127 10.0215C64.8926 10.3574 64.582 10.625 64.1953 10.8242C63.8086 11.0195 63.3809 11.1172 62.9121 11.1172C62.4277 11.1172 62.0059 11.0352 61.6465 10.8711C61.2871 10.7031 60.9883 10.4727 60.75 10.1797C60.5117 9.88672 60.332 9.54883 60.2109 9.16602C60.0938 8.7832 60.0352 8.37305 60.0352 7.93555V7.73047C60.0352 7.29297 60.0938 6.88281 60.2109 6.5C60.332 6.11328 60.5117 5.77344 60.75 5.48047C60.9883 5.1875 61.2871 4.95898 61.6465 4.79492C62.0059 4.62695 62.4258 4.54297 62.9062 4.54297C63.4141 4.54297 63.8594 4.64453 64.2422 4.84766C64.625 5.04688 64.9258 5.32617 65.1445 5.68555C65.3672 6.04102 65.4824 6.45508 65.4902 6.92773H64.1602C64.1484 6.69336 64.0898 6.48242 63.9844 6.29492C63.8828 6.10352 63.7383 5.95117 63.5508 5.83789C63.3672 5.72461 63.1465 5.66797 62.8887 5.66797C62.6035 5.66797 62.3672 5.72656 62.1797 5.84375C61.9922 5.95703 61.8457 6.11328 61.7402 6.3125C61.6348 6.50781 61.5586 6.72852 61.5117 6.97461C61.4688 7.2168 61.4473 7.46875 61.4473 7.73047V7.93555C61.4473 8.19727 61.4688 8.45117 61.5117 8.69727C61.5547 8.94336 61.6289 9.16406 61.7344 9.35938C61.8438 9.55078 61.9922 9.70508 62.1797 9.82227C62.3672 9.93555 62.6055 9.99219 62.8945 9.99219ZM69.3691 11.1172C68.9004 11.1172 68.4766 11.041 68.0977 10.8887C67.7227 10.7324 67.4023 10.5156 67.1367 10.2383C66.875 9.96094 66.6738 9.63477 66.5332 9.25977C66.3926 8.88477 66.3223 8.48047 66.3223 8.04688V7.8125C66.3223 7.31641 66.3945 6.86719 66.5391 6.46484C66.6836 6.0625 66.8848 5.71875 67.1426 5.43359C67.4004 5.14453 67.7051 4.92383 68.0566 4.77148C68.4082 4.61914 68.7891 4.54297 69.1992 4.54297C69.6523 4.54297 70.0488 4.61914 70.3887 4.77148C70.7285 4.92383 71.0098 5.13867 71.2324 5.41602C71.459 5.68945 71.627 6.01562 71.7363 6.39453C71.8496 6.77344 71.9062 7.19141 71.9062 7.64844V8.25195H67.0078V7.23828H70.5117V7.12695C70.5039 6.87305 70.4531 6.63477 70.3594 6.41211C70.2695 6.18945 70.1309 6.00977 69.9434 5.87305C69.7559 5.73633 69.5059 5.66797 69.1934 5.66797C68.959 5.66797 68.75 5.71875 68.5664 5.82031C68.3867 5.91797 68.2363 6.06055 68.1152 6.24805C67.9941 6.43555 67.9004 6.66211 67.834 6.92773C67.7715 7.18945 67.7402 7.48438 67.7402 7.8125V8.04688C67.7402 8.32422 67.7773 8.58203 67.8516 8.82031C67.9297 9.05469 68.043 9.25977 68.1914 9.43555C68.3398 9.61133 68.5195 9.75 68.7305 9.85156C68.9414 9.94922 69.1816 9.99805 69.4512 9.99805C69.791 9.99805 70.0938 9.92969 70.3594 9.79297C70.625 9.65625 70.8555 9.46289 71.0508 9.21289L71.7949 9.93359C71.6582 10.1328 71.4805 10.3242 71.2617 10.5078C71.043 10.6875 70.7754 10.834 70.459 10.9473C70.1465 11.0605 69.7832 11.1172 69.3691 11.1172ZM74.5195 2V11H73.1016V2H74.5195Z" fill="black"/>
</svg>
